<?xml version="1.0" encoding="utf-8"?>
<!-- Generator: Adobe Illustrator 23.1.1, SVG Export Plug-In . SVG Version: 6.00 Build 0)  -->
<svg version="1.1" id="Layer_1" xmlns="http://www.w3.org/2000/svg" xmlns:xlink="http://www.w3.org/1999/xlink" x="0px" y="0px"
	 viewBox="0 0 650 650" style="enable-background:new 0 0 650 650;" xml:space="preserve">
<style type="text/css">
	.st0{clip-path:url(#SVGID_2_);}
	.st1{fill:#340070;}
</style>
<g>
	<g>
		<defs>
			<rect id="SVGID_1_" width="650" height="650"/>
		</defs>
		<clipPath id="SVGID_2_">
			<use xlink:href="#SVGID_1_"  style="overflow:visible;"/>
		</clipPath>
		<g class="st0">
			<path class="st1" d="M450.41,294.14c-1.63-6.65-3.73-13.84-7.46-19.53c-0.32-0.48-0.62-0.95-0.93-1.41
				c-0.58-0.88-1.15-1.74-1.69-2.56c-6.69-10.07-10.77-16.24-14.5-28.76c-2.03-6.82-3.95-15.53-6.13-27.77
				c-0.27-1.49-0.53-3.02-0.81-4.62c-3.54-20.73-5.32-31.14-6.48-36.38c-0.25-1.14-0.46-2-0.65-2.65c-0.02-0.07-0.04-0.13-0.06-0.19
				c-0.03-0.09-0.05-0.18-0.08-0.26c-0.03-0.09-0.06-0.17-0.08-0.26c-0.01-0.04-0.03-0.09-0.04-0.12c-0.03-0.1-0.07-0.18-0.1-0.26
				c-0.01-0.02-0.01-0.04-0.02-0.05c-0.03-0.08-0.06-0.15-0.1-0.22c-0.01-0.01-0.01-0.03-0.02-0.04c-0.03-0.06-0.06-0.12-0.09-0.17
				c-0.01-0.01-0.01-0.03-0.02-0.04c-0.03-0.04-0.05-0.08-0.08-0.12c-0.01-0.02-0.02-0.03-0.03-0.05c-0.02-0.03-0.04-0.05-0.06-0.07
				c-0.02-0.02-0.03-0.04-0.05-0.05c-0.01-0.01-0.03-0.02-0.04-0.03c-0.02-0.02-0.05-0.04-0.07-0.06c-0.15-0.11-0.3-0.15-0.48-0.19
				c-0.03,0-0.07,0.01-0.11,0.02c-0.07,0.01-0.14,0.02-0.22,0.04c-0.04,0.01-0.08,0.02-0.11,0.03c-0.09,0.02-0.18,0.04-0.27,0.07
				c-0.04,0.01-0.08,0.03-0.12,0.04c-0.1,0.03-0.21,0.06-0.32,0.1c-0.05,0.02-0.1,0.04-0.15,0.06c-0.11,0.04-0.22,0.08-0.34,0.12
				c-0.04,0.02-0.09,0.04-0.13,0.05c-0.13,0.05-0.26,0.11-0.41,0.17c-0.05,0.02-0.1,0.04-0.14,0.06c-0.14,0.06-0.29,0.13-0.44,0.19
				c-0.03,0.01-0.06,0.03-0.09,0.04c-0.17,0.08-0.35,0.16-0.53,0.25c-0.05,0.02-0.1,0.05-0.15,0.08c-0.17,0.08-0.33,0.16-0.5,0.25
				c-0.03,0.01-0.05,0.03-0.08,0.04c-0.2,0.1-0.4,0.2-0.6,0.31c-0.08,0.04-0.15,0.08-0.23,0.12c-0.16,0.09-0.32,0.17-0.48,0.26
				c-0.09,0.05-0.19,0.11-0.28,0.16c-0.15,0.08-0.3,0.17-0.46,0.26c-0.09,0.05-0.18,0.1-0.27,0.16c-0.16,0.09-0.33,0.19-0.49,0.28
				c-0.12,0.07-0.24,0.14-0.36,0.21c-0.14,0.08-0.28,0.16-0.42,0.25c-0.16,0.09-0.32,0.19-0.48,0.29c-0.11,0.07-0.21,0.13-0.32,0.2
				c-0.14,0.09-0.29,0.18-0.44,0.27c-0.13,0.08-0.26,0.16-0.38,0.24c-0.15,0.1-0.31,0.2-0.47,0.3c-0.12,0.08-0.24,0.15-0.36,0.23
				c-0.22,0.14-0.43,0.28-0.65,0.42c-0.06,0.04-0.12,0.08-0.19,0.12c-7.92,5.21-14.6,12.51-22.58,17.82
				c-6.75,4.49-15.18,9.48-23.34,9.48c-1.8,0-3.37-0.33-4.68-0.97c-7.19-3.55-18.64-4.62-23.75-4.7c-5.11,0.07-16.56,1.15-23.75,4.7
				c-1.31,0.64-2.88,0.97-4.68,0.97c-8.15,0-16.59-4.99-23.34-9.48c-7.98-5.31-14.67-12.61-22.58-17.82
				c-0.06-0.04-0.12-0.08-0.19-0.12c-0.22-0.14-0.43-0.28-0.65-0.42c-0.12-0.08-0.24-0.15-0.36-0.23c-0.16-0.1-0.31-0.2-0.47-0.3
				c-0.13-0.08-0.26-0.16-0.38-0.24c-0.15-0.09-0.29-0.18-0.44-0.27c-0.11-0.07-0.22-0.13-0.32-0.2c-0.16-0.1-0.32-0.2-0.48-0.29
				c-0.14-0.09-0.28-0.17-0.42-0.25c-0.12-0.07-0.24-0.14-0.36-0.21c-0.17-0.1-0.33-0.19-0.49-0.28c-0.09-0.05-0.18-0.11-0.27-0.16
				c-0.16-0.09-0.31-0.17-0.46-0.26c-0.09-0.05-0.19-0.11-0.28-0.16c-0.16-0.09-0.32-0.17-0.48-0.26c-0.08-0.04-0.16-0.08-0.23-0.12
				c-0.21-0.11-0.41-0.21-0.6-0.31c-0.03-0.01-0.05-0.03-0.08-0.04c-0.17-0.09-0.34-0.17-0.5-0.25c-0.05-0.02-0.1-0.05-0.15-0.08
				c-0.18-0.09-0.36-0.17-0.53-0.25c-0.03-0.01-0.06-0.03-0.09-0.04c-0.15-0.07-0.29-0.13-0.44-0.19c-0.05-0.02-0.1-0.04-0.14-0.06
				c-0.14-0.06-0.27-0.11-0.41-0.17c-0.04-0.02-0.09-0.04-0.13-0.05c-0.12-0.05-0.23-0.08-0.34-0.12c-0.05-0.02-0.11-0.04-0.15-0.06
				c-0.11-0.04-0.21-0.07-0.32-0.1c-0.04-0.01-0.08-0.03-0.12-0.04c-0.1-0.03-0.18-0.05-0.27-0.07c-0.04-0.01-0.08-0.02-0.11-0.03
				c-0.08-0.02-0.15-0.03-0.22-0.04c-0.04,0-0.07-0.01-0.11-0.02c-0.18,0.04-0.33,0.08-0.48,0.19c-0.02,0.02-0.05,0.04-0.07,0.06
				c-0.01,0.01-0.03,0.02-0.04,0.03c-0.02,0.02-0.03,0.04-0.05,0.05c-0.02,0.02-0.04,0.05-0.06,0.07c-0.01,0.01-0.02,0.03-0.03,0.05
				c-0.03,0.04-0.05,0.07-0.08,0.12c-0.01,0.01-0.01,0.03-0.02,0.04c-0.03,0.05-0.06,0.11-0.09,0.17c-0.01,0.01-0.01,0.03-0.02,0.04
				c-0.03,0.07-0.06,0.14-0.1,0.22c-0.01,0.02-0.01,0.04-0.02,0.05c-0.03,0.08-0.07,0.17-0.1,0.26c-0.01,0.04-0.03,0.08-0.04,0.12
				c-0.03,0.08-0.06,0.16-0.08,0.26c-0.02,0.08-0.05,0.17-0.08,0.26c-0.02,0.06-0.04,0.12-0.06,0.19c-0.18,0.65-0.39,1.51-0.65,2.65
				c-1.16,5.24-2.94,15.65-6.48,36.38c-0.27,1.6-0.54,3.13-0.81,4.62c-2.17,12.24-4.1,20.95-6.13,27.77
				c-3.73,12.52-7.81,18.69-14.5,28.76c-0.54,0.82-1.11,1.68-1.69,2.56c-0.31,0.46-0.61,0.93-0.93,1.41
				c-3.74,5.68-5.83,12.88-7.46,19.53c-2.65,10.82-3.71,22.14-2.93,33.3c0.41,5.89,1.12,11.83,3.06,17.39
				c1.63,4.66,3.91,9.22,6.17,13.57c3.97,7.65,8.69,14.86,14.09,21.43c4.94,6.02,10.45,11.49,16.41,16.34
				c5.54,4.52,11.46,8.5,17.64,11.94c5.73,3.19,11.69,5.92,17.78,8.22c5.52,2.08,11.15,3.8,16.84,5.19
				c4.9,1.19,9.84,2.14,14.82,2.85c3.89,0.55,7.8,0.96,11.71,1.2c2.5,0.15,5.01,0.24,7.52,0.23c0.76,0,1.53-0.01,2.29-0.05
				c0.76,0.04,1.53,0.04,2.29,0.05c2.51,0.01,5.02-0.08,7.52-0.23c3.92-0.24,7.82-0.65,11.71-1.2c4.98-0.71,9.93-1.66,14.82-2.85
				c5.7-1.39,11.33-3.11,16.84-5.19c6.09-2.3,12.05-5.03,17.78-8.22c6.18-3.44,12.1-7.42,17.64-11.94
				c5.95-4.85,11.46-10.33,16.41-16.34c5.4-6.57,10.12-13.78,14.09-21.43c2.26-4.35,4.54-8.9,6.17-13.57
				c1.94-5.56,2.65-11.5,3.06-17.39C454.12,316.27,453.07,304.95,450.41,294.14z"/>
			<path class="st1" d="M634.89,573.14c-9.68-38.01-23.62-67.12-41.57-91.45c-17.95-24.32-9.1-31.7-28.03-66.4
				c-24.34-44.61-79.67-56.23-79.67-56.23c-23.62-24.32-62.35-39.52-62.35-39.52l-98.26-6.08l-98.26,6.08
				c0,0-38.74,15.2-62.35,39.52c0,0-55.33,11.63-79.67,56.23c-18.94,34.7-10.08,42.07-28.03,66.4
				c-17.95,24.32-31.89,53.43-41.57,91.45C5.86,609.52,0.01,650,0.01,650h325h325C650,650,644.15,609.53,634.89,573.14z"/>
		</g>
	</g>
</g>
</svg>
